<?xml version="1.0" encoding="UTF-8" standalone="no"?>
<!DOCTYPE svg PUBLIC "-//W3C//DTD SVG 1.1//EN" "http://www.w3.org/Graphics/SVG/1.1/DTD/svg11.dtd">
<svg version="1.1" xmlns="http://www.w3.org/2000/svg" xmlns:xlink="http://www.w3.org/1999/xlink" preserveAspectRatio="xMidYMid meet" viewBox="0 0 440 95" width="440" height="95"><defs><path d="M67.82 35.32C67.79 35.6 67.65 37 67.38 39.53L80.89 31.11L69.15 22.7C68.89 25.22 68.74 26.62 68.71 26.9C68.71 26.9 65.84 26.88 64.57 26.88C52.87 26.88 47.1 30.74 49.31 40.51C50.46 45.54 51.67 48.45 53.9 56.36C56.83 66.83 47.94 77.4 33.95 77.4C16.62 77.4 9.67 59.59 24.37 25.25C27.39 18.21 31.31 10.47 36.24 2.06C35.26 1.8 34.21 1.66 33.11 1.66C28.44 1.66 24.09 4.2 21.51 7.97C21.22 8.45 20.93 8.94 20.65 9.42C9.64 27.91 4.8 42.81 2.94 52.15C-1.62 74.93 7.18 94.13 32.18 94.23C53.96 94.32 76.43 73.08 66.06 52.15C61.06 42.07 57.66 35.32 63.62 35.32C65.56 35.32 66.98 35.32 67.82 35.32ZM35.27 64.78C30.62 64.78 27.25 61.01 27.74 56.36C28.23 51.71 32.4 47.95 37.04 47.95C41.69 47.95 45.06 51.71 44.57 56.36C44.08 61.01 39.92 64.78 35.27 64.78ZM20.65 9.42C20.91 8.92 21.2 8.43 21.51 7.97C21.22 8.45 20.93 8.94 20.65 9.42ZM327.56 54.99C323.6 53.32 322.62 50.86 322.93 47.95C322.96 47.62 322.99 47.36 323.02 47.06C323.47 42.82 326.39 40.58 329.54 40.58C333.59 40.58 334.68 43.6 334.04 49.64C334.04 49.7 334.01 50 333.95 50.54L344.05 50.54C344.17 49.38 344.24 48.73 344.25 48.6C345.3 38.63 341.01 32.87 330.66 32.87C318.9 32.87 313.49 40.2 312.53 49.35C311.7 57.17 314.74 61.3 320.75 64.08C321.51 64.43 327.6 67.29 328.36 67.65C330.59 68.73 332.42 70.45 332.02 74.22C332 74.45 331.88 75.55 331.86 75.77C331.37 80.4 328.7 82.66 325.05 82.66C320.97 82.66 319.14 79.32 319.67 74.26C319.7 74.05 319.8 73.02 320 71.16L309.9 71.16C309.8 72.14 309.74 72.68 309.73 72.79C308.61 83.38 311.44 90.38 324.28 90.38C333.89 90.38 341.41 84.97 342.63 73.35C343.51 65.01 340.11 60.47 333.22 57.48C332.09 56.99 328.13 55.24 327.56 54.99ZM433.83 33.57L433.83 33.57L432.23 41.28L427.43 41.28C425.34 61.11 424.18 72.13 423.95 74.33C423.61 77.56 423.17 81.86 427.87 82.56C427.87 83.34 427.87 89.59 427.87 90.37C425.77 90.33 423.93 90.1 422.33 89.72C413.02 87.5 412.06 80.03 412.64 74.49C412.88 72.28 414.04 61.21 416.13 41.28L404 41.28L398.92 89.67L387.62 89.67L392.71 41.28L389.2 41.28L390.02 33.57L393.52 33.57C393.85 30.49 394.03 28.77 394.06 28.43C394.64 22.89 397.19 15.4 406.96 13.18C408.82 12.76 410.88 12.53 413.26 12.53C414.28 12.53 415.23 12.57 416.13 12.65C416.13 12.65 416.13 12.66 416.13 12.67C415.15 17.34 414.6 19.94 414.49 20.46C413.91 20.32 413.23 20.24 412.45 20.24C406.91 20.24 405.89 24.02 405.47 27.33C405.43 27.75 405.21 29.83 404.81 33.57L416.95 33.57L417.93 24.23L429.34 23.05L428.24 33.57L433.83 33.57ZM370.72 74.33C370.35 77.85 369.85 82.66 363.6 82.66C357.36 82.66 357.87 77.85 358.24 74.33C358.51 71.79 360.64 51.46 360.91 48.91C361.28 45.39 361.79 40.58 368.03 40.58C374.27 40.58 373.76 45.39 373.39 48.91C372.86 54 370.99 71.79 370.72 74.33ZM368.84 32.87C353.76 32.87 350.33 42.19 349.63 48.77C349.36 51.34 347.2 71.92 346.93 74.49C346.24 81.07 347.72 90.38 362.8 90.38C377.88 90.38 381.31 81.07 382 74.49C382.27 71.92 384.43 51.34 384.7 48.77C385.39 42.19 383.92 32.87 368.84 32.87" id="e8rIfAp9X"></path><path d="M292.07 73.93C291.4 80.29 286.73 82.87 283.34 82.87C279.95 82.87 278.96 79.21 279.43 74.79C279.53 73.85 279.53 73.78 279.59 73.2C280.14 68.02 282.46 65.11 287.73 63.82C289.33 63.39 293.32 62.04 293.32 62.04C293.07 64.42 292.32 71.55 292.07 73.93ZM271.87 49.97C271.86 50.04 271.83 50.37 271.77 50.96L282.36 50.96C282.52 49.44 282.6 48.6 282.62 48.43C283.11 43.74 285.52 40.6 289.51 40.6C293.88 40.6 295.28 43.38 294.8 47.96C294.77 48.23 294.7 48.97 294.66 49.31C294.24 53.33 292.73 55.12 288.71 56.34C287.99 56.56 282.27 58.32 281.56 58.54C272.97 61.21 268.88 64.33 267.79 74.71C267.01 82.12 269.12 90.38 277.51 90.38C282.52 90.38 301.29 89.67 301.29 89.67C301.71 85.69 305.06 53.82 305.47 49.84C306.52 39.86 304.55 32.87 290.21 32.87C281.11 32.87 273.21 37.22 271.87 49.97ZM216.21 89.74L204.92 89.74C207.26 67.52 208.55 55.17 208.81 52.71C209.2 49.02 209.84 42.91 203.6 42.91C197.36 42.91 196.58 50.31 196.33 52.71C196.07 55.18 194.77 67.53 192.44 89.74L181.15 89.74C184.69 56.06 186.65 37.35 187.05 33.6C187.05 33.6 204.99 32.9 210.47 32.9C217.29 32.9 221.64 38.1 220.93 44.85C220.93 44.85 219.36 59.82 216.21 89.74ZM224.39 89.74L235.68 89.74L241.57 33.64L230.28 33.64L224.39 89.74ZM232.13 16.1L243.42 16.1L242.46 25.22L231.17 25.22L232.13 16.1ZM163.4 74.33C163.03 77.85 162.53 82.66 156.29 82.66C150.04 82.66 150.55 77.85 150.92 74.33C151.19 71.79 153.32 51.46 153.59 48.91C153.96 45.39 154.47 40.58 160.71 40.58C166.95 40.58 166.45 45.39 166.08 48.91C165.54 54 163.67 71.79 163.4 74.33ZM142.31 48.77C142.04 51.34 139.88 71.92 139.61 74.49C138.92 81.07 140.4 90.38 155.48 90.38C170.56 90.38 173.99 81.07 174.68 74.49C174.95 71.92 177.11 51.34 177.38 48.77C178.07 42.19 176.6 32.87 161.52 32.87C146.44 32.87 143.01 42.19 142.31 48.77ZM267.46 33.64L265.94 41.35L261.14 41.35C259.03 61.16 257.86 72.16 257.63 74.36C257.29 77.59 256.81 81.86 261.51 82.56C261.51 83.34 261.51 89.59 261.51 90.37C259.41 90.33 257.6 90.1 256.01 89.72C246.69 87.5 245.75 80.03 246.34 74.49C246.69 71.14 248.45 54.39 251.63 24.23L263.05 23.08L261.95 33.64L267.46 33.64ZM115.7 48.79C115.22 48.79 112.82 48.79 108.52 48.79L110.65 28.52C115.43 28.52 118.08 28.52 118.61 28.52C123.67 28.52 124.66 32.01 123.99 38.31C123.4 43.95 122.22 48.79 115.7 48.79ZM113.1 80.7C112.88 80.7 111.1 80.7 110.88 80.7C105.97 80.7 105.48 77.59 105.71 75.45C105.78 74.83 106.1 71.73 106.69 66.15L107.7 56.5C112.73 56.5 115.52 56.5 116.07 56.5C122.24 56.5 122.35 62.59 121.73 68.55C120.83 77.1 119.69 80.7 113.1 80.7ZM135.46 36.06C136.72 24.04 131.48 19.61 119.74 19.61C118.39 19.61 111.65 19.61 99.52 19.61L96.6 47.39C94.89 63.66 93.94 72.7 93.75 74.51C93.06 81.09 94.54 90.45 109.61 90.45C109.93 90.45 112.5 90.45 112.82 90.45C127.19 90.45 132.49 81 133.72 69.24C134.66 60.37 132.57 54.09 124.86 52.69C124.86 52.67 124.88 52.53 124.88 52.51C132.94 49.88 134.68 43.43 135.46 36.06" id="d13wjrFkcF"></path></defs><g><g><g><use xlink:href="#e8rIfAp9X" opacity="1" fill="#ffffff" fill-opacity="1"></use><g><use xlink:href="#e8rIfAp9X" opacity="1" fill-opacity="0" stroke="#000000" stroke-width="1" stroke-opacity="0"></use></g></g><g><use xlink:href="#d13wjrFkcF" opacity="1" fill="#ffffff" fill-opacity="1"></use><g><use xlink:href="#d13wjrFkcF" opacity="1" fill-opacity="0" stroke="#000000" stroke-width="1" stroke-opacity="0"></use></g></g></g></g></svg>