<?xml version="1.0" encoding="UTF-8" standalone="no"?>
<!DOCTYPE svg PUBLIC "-//W3C//DTD SVG 1.1//EN" "http://www.w3.org/Graphics/SVG/1.1/DTD/svg11.dtd">
<svg version="1.1" xmlns="http://www.w3.org/2000/svg" xmlns:xlink="http://www.w3.org/1999/xlink" preserveAspectRatio="xMidYMid meet" viewBox="0 0 355 80" width="355" height="80"><defs><path d="M-17.84 27.87C-16.94 27.31 -12.44 24.5 -4.33 19.45C-11.38 14.4 -15.29 11.6 -16.07 11.04C-16.33 13.56 -16.48 14.96 -16.51 15.24C-16.51 15.24 -19.38 15.22 -20.65 15.22C-32.35 15.22 -38.12 19.08 -35.91 28.85C-34.76 33.88 -33.55 36.79 -31.32 44.7C-28.39 55.17 -37.28 65.74 -51.27 65.74C-68.6 65.74 -75.55 47.93 -60.85 13.59C-57.83 6.55 -53.91 -1.19 -48.98 -9.6C-49.96 -9.86 -51.01 -10 -52.11 -10C-56.78 -10 -61.13 -7.46 -63.71 -3.69C-64 -3.21 -64.29 -2.72 -64.57 -2.24C-75.58 16.25 -80.42 31.15 -82.28 40.49C-86.84 63.27 -78.04 82.47 -53.04 82.57C-31.26 82.66 -8.79 61.42 -19.16 40.49C-24.16 30.41 -27.56 23.66 -21.6 23.66C-19.66 23.66 -18.24 23.66 -17.4 23.66C-17.43 23.94 -17.57 25.34 -17.84 27.87ZM-57.48 44.7C-56.99 40.05 -52.82 36.29 -48.18 36.29C-43.53 36.29 -40.16 40.05 -40.65 44.7C-41.14 49.35 -45.3 53.12 -49.95 53.12C-54.6 53.12 -57.97 49.35 -57.48 44.7ZM-63.71 -3.69C-64 -3.21 -64.29 -2.72 -64.57 -2.24C-64.31 -2.74 -64.02 -3.23 -63.71 -3.69ZM237.71 36.29C237.74 35.96 237.77 35.7 237.8 35.4C238.25 31.16 241.17 28.92 244.32 28.92C248.37 28.92 249.46 31.94 248.82 37.98C248.82 38.04 248.79 38.34 248.73 38.88C249.74 38.88 257.82 38.88 258.83 38.88C258.95 37.72 259.02 37.07 259.03 36.94C260.08 26.97 255.79 21.21 245.44 21.21C233.68 21.21 228.27 28.54 227.31 37.69C226.48 45.51 229.52 49.64 235.53 52.42C236.29 52.77 242.38 55.63 243.14 55.99C245.37 57.07 247.2 58.79 246.8 62.56C246.78 62.79 246.66 63.89 246.64 64.11C246.15 68.74 243.48 71 239.83 71C235.75 71 233.92 67.66 234.45 62.6C234.48 62.39 234.58 61.36 234.78 59.5C233.77 59.5 225.69 59.5 224.68 59.5C224.58 60.48 224.52 61.02 224.51 61.13C223.39 71.72 226.22 78.72 239.06 78.72C248.67 78.72 256.19 73.31 257.41 61.69C258.29 53.35 254.89 48.81 248 45.82C246.87 45.33 242.91 43.58 242.34 43.33C238.38 41.66 237.4 39.2 237.71 36.29ZM348.61 21.91L347.01 29.62C344.13 29.62 342.53 29.62 342.21 29.62C340.12 49.45 338.96 60.47 338.73 62.67C338.39 65.9 337.95 70.2 342.65 70.9C342.65 71.68 342.65 77.93 342.65 78.71C340.55 78.67 338.71 78.44 337.11 78.06C327.8 75.84 326.84 68.37 327.42 62.83C327.66 60.62 328.82 49.55 330.91 29.62C330.1 29.62 326.05 29.62 318.78 29.62L313.7 78.01L302.4 78.01L307.49 29.62L303.98 29.62L304.8 21.91C306.9 21.91 308.06 21.91 308.3 21.91C308.63 18.83 308.81 17.11 308.84 16.77C309.42 11.23 311.97 3.74 321.74 1.52C323.6 1.1 325.66 0.87 328.04 0.87C329.06 0.87 330.01 0.91 330.91 0.99C330.91 0.99 330.91 1 330.91 1.01C329.93 5.68 329.38 8.28 329.27 8.8C328.69 8.66 328.01 8.58 327.23 8.58C321.69 8.58 320.67 12.36 320.25 15.67C320.21 16.09 319.99 18.17 319.59 21.91C320.39 21.91 324.44 21.91 331.73 21.91L332.71 12.57L344.12 11.39L343.02 21.91L348.61 21.91L348.61 21.91ZM278.38 71C272.14 71 272.65 66.19 273.02 62.67C273.29 60.13 275.42 39.8 275.69 37.25C276.06 33.73 276.57 28.92 282.81 28.92C289.05 28.92 288.54 33.73 288.17 37.25C287.64 42.34 285.77 60.13 285.5 62.67C285.13 66.19 284.63 71 278.38 71ZM283.62 21.21C268.54 21.21 265.11 30.53 264.41 37.11C264.14 39.68 261.98 60.26 261.71 62.83C261.02 69.41 262.5 78.72 277.58 78.72C292.66 78.72 296.09 69.41 296.78 62.83C297.05 60.26 299.21 39.68 299.48 37.11C300.17 30.53 298.7 21.21 283.62 21.21" id="b59IsrDc5c"></path><path d="M199.14 69.6C195.75 69.6 194.76 65.93 195.23 61.51C195.33 60.57 195.33 60.5 195.39 59.92C195.94 54.74 198.26 51.83 203.53 50.54C205.13 50.11 209.12 48.76 209.12 48.76C208.87 51.14 208.12 58.27 207.87 60.65C207.2 67.01 202.53 69.6 199.14 69.6ZM187.57 37.68C188.63 37.68 197.11 37.68 198.16 37.68C198.32 36.16 198.4 35.32 198.42 35.15C198.91 30.46 201.32 27.32 205.31 27.32C209.68 27.32 211.08 30.1 210.6 34.68C210.57 34.95 210.5 35.69 210.46 36.03C210.04 40.05 208.53 41.84 204.51 43.06C203.79 43.28 198.07 45.04 197.36 45.26C188.77 47.93 184.68 51.05 183.59 61.43C182.81 68.85 184.92 77.1 193.31 77.1C198.32 77.1 217.09 76.39 217.09 76.39C217.51 72.41 220.86 40.54 221.27 36.56C222.32 26.58 220.35 19.59 206.01 19.59C196.91 19.59 189.01 23.94 187.67 36.69C187.66 36.76 187.63 37.09 187.57 37.68ZM120.72 76.46C123.06 54.24 124.35 41.89 124.61 39.43C125 35.74 125.64 29.63 119.4 29.63C113.16 29.63 112.38 37.03 112.13 39.43C111.87 41.9 110.57 54.25 108.24 76.46C107.12 76.46 98.08 76.46 96.95 76.46C100.49 42.78 102.45 24.07 102.85 20.32C102.85 20.32 120.79 19.62 126.27 19.62C133.09 19.62 137.44 24.82 136.73 31.57C136.73 31.57 135.16 46.54 132.01 76.46C129.76 76.46 121.85 76.46 120.72 76.46ZM151.48 76.46L157.37 20.36L146.08 20.36L140.19 76.46L151.48 76.46ZM159.22 2.82L158.26 11.94L146.97 11.94L147.93 2.82L159.22 2.82ZM72.09 69.38C65.84 69.38 66.35 64.57 66.72 61.05C66.99 58.51 69.12 38.18 69.39 35.63C69.76 32.11 70.27 27.3 76.51 27.3C82.75 27.3 82.25 32.11 81.88 35.63C81.34 40.72 79.47 58.51 79.2 61.05C78.83 64.57 78.33 69.38 72.09 69.38ZM55.41 61.21C54.72 67.79 56.2 77.1 71.28 77.1C86.36 77.1 89.79 67.79 90.48 61.21C90.75 58.64 92.91 38.06 93.18 35.49C93.87 28.91 92.4 19.59 77.32 19.59C62.24 19.59 58.81 28.91 58.11 35.49C57.84 38.06 55.68 58.64 55.41 61.21ZM181.74 28.07C178.86 28.07 177.26 28.07 176.94 28.07C174.83 47.88 173.66 58.88 173.43 61.08C173.09 64.32 172.61 68.58 177.31 69.29C177.31 70.07 177.31 76.32 177.31 77.1C175.21 77.05 173.4 76.82 171.81 76.44C162.49 74.22 161.55 66.76 162.14 61.21C162.49 57.86 164.25 41.11 167.43 10.95C168.2 10.88 172 10.49 178.85 9.8L177.75 20.36L183.26 20.36L181.74 28.07ZM24.32 35.51C24.54 33.49 26.24 17.27 26.45 15.24C31.23 15.24 33.88 15.24 34.41 15.24C39.47 15.24 40.46 18.73 39.79 25.03C39.2 30.67 38.02 35.51 31.5 35.51C31.02 35.51 28.62 35.51 24.32 35.51ZM26.68 67.42C21.77 67.42 21.28 64.32 21.51 62.17C21.58 61.55 21.9 58.45 22.49 52.87C22.6 51.91 23.4 44.19 23.5 43.22C28.53 43.22 31.32 43.22 31.87 43.22C38.04 43.22 38.15 49.31 37.53 55.27C36.63 63.82 35.49 67.42 28.9 67.42C28.68 67.42 26.9 67.42 26.68 67.42ZM51.26 22.78C52.52 10.76 47.28 6.33 35.54 6.33C34.19 6.33 27.45 6.33 15.32 6.33C15.03 9.11 12.7 31.34 12.4 34.11C10.69 50.38 9.74 59.42 9.55 61.23C8.86 67.82 10.34 77.17 25.41 77.17C25.73 77.17 28.3 77.17 28.62 77.17C42.99 77.17 48.29 67.72 49.52 55.96C50.46 47.09 48.37 40.81 40.66 39.41C40.66 39.39 40.68 39.25 40.68 39.23C48.74 36.6 50.48 30.15 51.26 22.78" id="eRVTy6vW9"></path><path d="M53.33 66.01L53.33 66.01L51.88 66.01L53.33 66.01Z" id="a23FCIarIj"></path></defs><g><g><g><use xlink:href="#b59IsrDc5c" opacity="1" fill="#ffffff" fill-opacity="1"></use><g><use xlink:href="#b59IsrDc5c" opacity="1" fill-opacity="0" stroke="#000000" stroke-width="1" stroke-opacity="0"></use></g></g><g><use xlink:href="#eRVTy6vW9" opacity="1" fill="#ffffff" fill-opacity="1"></use><g><use xlink:href="#eRVTy6vW9" opacity="1" fill-opacity="0" stroke="#000000" stroke-width="1" stroke-opacity="0"></use></g></g><g><use xlink:href="#a23FCIarIj" opacity="1" fill="#bf1c1c" fill-opacity="1"></use></g></g></g></svg>