<?xml version="1.0" encoding="UTF-8" standalone="no"?>
<svg
   xmlns:dc="http://purl.org/dc/elements/1.1/"
   xmlns:cc="http://creativecommons.org/ns#"
   xmlns:rdf="http://www.w3.org/1999/02/22-rdf-syntax-ns#"
   xmlns:svg="http://www.w3.org/2000/svg"
   xmlns="http://www.w3.org/2000/svg"
   xmlns:sodipodi="http://sodipodi.sourceforge.net/DTD/sodipodi-0.dtd"
   xmlns:inkscape="http://www.inkscape.org/namespaces/inkscape"
   viewBox="0 0 359.36014 420.6329"
   height="420.6329"
   width="359.36014"
   xml:space="preserve"
   version="1.1"
   id="svg2"
   inkscape:version="0.48.5 r10040"
   sodipodi:docname="Logo-Bonitasoft.svg"><sodipodi:namedview
     pagecolor="#ffffff"
     bordercolor="#666666"
     borderopacity="1"
     objecttolerance="10"
     gridtolerance="10"
     guidetolerance="10"
     inkscape:pageopacity="0"
     inkscape:pageshadow="2"
     inkscape:window-width="1920"
     inkscape:window-height="1145"
     id="namedview3063"
     showgrid="false"
     inkscape:zoom="1"
     inkscape:cx="78.009947"
     inkscape:cy="130.79081"
     inkscape:window-x="1918"
     inkscape:window-y="-3"
     inkscape:window-maximized="1"
     inkscape:current-layer="g12"
     fit-margin-top="0"
     fit-margin-left="0"
     fit-margin-right="0"
     fit-margin-bottom="0" /><metadata
     id="metadata8"><rdf:RDF><cc:Work
         rdf:about=""><dc:format>image/svg+xml</dc:format><dc:type
           rdf:resource="http://purl.org/dc/dcmitype/StillImage" /><dc:title></dc:title></cc:Work></rdf:RDF></metadata><defs
     id="defs6"><clipPath
       id="clipPath18"
       clipPathUnits="userSpaceOnUse"><path
         id="path20"
         d="m 0.222656,7926.66 3519.660044,0 0,754.215 -3519.660044,0 0,-754.215 z"
         inkscape:connector-curvature="0" /></clipPath><clipPath
       id="clipPath30"
       clipPathUnits="userSpaceOnUse"><path
         id="path32"
         d="m 0,1757.54 6441.09,0 0,6923.33 -6441.09,0 0,-6923.33 z"
         inkscape:connector-curvature="0" /></clipPath><clipPath
       clipPathUnits="userSpaceOnUse"
       id="clipPath30-5"><path
         d="m 0,1757.54 6441.09,0 0,6923.33 -6441.09,0 0,-6923.33 z"
         id="path32-6"
         inkscape:connector-curvature="0" /></clipPath><clipPath
       clipPathUnits="userSpaceOnUse"
       id="clipPath18-5"><path
         d="m 0.222656,7926.66 3519.660044,0 0,754.215 -3519.660044,0 0,-754.215 z"
         id="path20-3"
         inkscape:connector-curvature="0" /></clipPath></defs><g
     id="g12"
     transform="matrix(2.1877125,0,0,-2.1877125,-3351.7106,15491.529)"><path
       d="m 1660.4554,7011.2383 c 4.0297,0 8.7386,0 8.7386,0 l -0.9189,-8.7411 28.0496,17.4797 -24.3755,17.4784 -0.9188,-8.7386 c 0,0 -5.9655,0.048 -8.5869,0.048 -24.2927,0 -36.2899,-8.0224 -31.6855,-28.307 2.373,-10.4539 4.8988,-16.4806 9.5109,-32.9178 6.1031,-21.7528 -12.3732,-43.6979 -41.4244,-43.6979 -35.9776,0 -50.4077,36.9933 -19.8743,108.3151 6.2586,14.62 14.4071,30.6825 24.6444,48.1622 -2.0467,0.5442 -4.2209,0.8347 -6.4957,0.8347 -9.7032,0 -18.7311,-5.2747 -24.0874,-13.1136 -0.6105,-1.0055 -1.212,-2.0059 -1.8046,-3.0024 -22.8513,-38.4067 -32.8961,-69.3568 -36.7754,-88.7595 -9.456,-47.3096 8.8202,-87.1895 60.7202,-87.3946 45.2348,-0.1797 91.8996,43.9247 70.3482,87.3946 -10.3826,20.9435 -17.4313,34.9593 -5.0645,34.9593 z m -39.5434,-43.6979 c -1.017,-9.6523 -9.665,-17.4797 -19.3161,-17.4797 -9.6523,0 -16.6526,7.8274 -15.6356,17.4797 1.0182,9.6536 9.665,17.4784 19.3174,17.4784 9.6523,0 16.6513,-7.8248 15.6343,-17.4784"
       style="fill:#e51636;fill-opacity:1;fill-rule:nonzero;stroke:none"
       id="path38"
       inkscape:connector-curvature="0" /></g></svg>