<?xml version="1.0" encoding="UTF-8" standalone="no"?>
<svg
   xmlns:dc="http://purl.org/dc/elements/1.1/"
   xmlns:cc="http://creativecommons.org/ns#"
   xmlns:rdf="http://www.w3.org/1999/02/22-rdf-syntax-ns#"
   xmlns:svg="http://www.w3.org/2000/svg"
   xmlns="http://www.w3.org/2000/svg"
   xmlns:sodipodi="http://sodipodi.sourceforge.net/DTD/sodipodi-0.dtd"
   xmlns:inkscape="http://www.inkscape.org/namespaces/inkscape"
   viewBox="0 0 769.99981 164.99946"
   height="164.99947"
   width="769.99982"
   xml:space="preserve"
   version="1.1"
   id="svg2"
   sodipodi:docname="logo-bonitasoft-color.svg"
   inkscape:version="0.92.1 r15371"><sodipodi:namedview
     pagecolor="#ffffff"
     bordercolor="#666666"
     borderopacity="1"
     objecttolerance="10"
     gridtolerance="10"
     guidetolerance="10"
     inkscape:pageopacity="0"
     inkscape:pageshadow="2"
     inkscape:window-width="1920"
     inkscape:window-height="1028"
     id="namedview21"
     showgrid="false"
     inkscape:pagecheckerboard="true"
     fit-margin-top="0"
     fit-margin-left="0"
     fit-margin-right="0"
     fit-margin-bottom="0"
     inkscape:zoom="1"
     inkscape:cx="371.32948"
     inkscape:cy="-57.444026"
     inkscape:window-x="0"
     inkscape:window-y="0"
     inkscape:window-maximized="1"
     inkscape:current-layer="svg2" /><metadata
     id="metadata8"><rdf:RDF><cc:Work
         rdf:about=""><dc:format>image/svg+xml</dc:format><dc:type
           rdf:resource="http://purl.org/dc/dcmitype/StillImage" /><dc:title></dc:title></cc:Work></rdf:RDF></metadata><defs
     id="defs6"><clipPath
       id="clipPath18"
       clipPathUnits="userSpaceOnUse"><path
         id="path20"
         d="M 0.222656,7926.66 H 3519.8827 v 754.215 H 0.222656 Z"
         inkscape:connector-curvature="0" /></clipPath><clipPath
       id="clipPath30"
       clipPathUnits="userSpaceOnUse"><path
         id="path32"
         d="M 0,1757.54 H 6441.09 V 8680.87 H 0 Z"
         inkscape:connector-curvature="0" /></clipPath></defs><g
     id="g14"
     transform="matrix(0.21877125,0,0,-0.21877125,-0.04871073,1899.1248)"><g
       clip-path="url(#clipPath18)"
       id="g16"><path
         id="path22"
         style="fill:#0d2b36;fill-opacity:1;fill-rule:nonzero;stroke:none"
         d="m 2371.27,8092.09 c -5.45,-51.8 -43.5,-72.87 -71.12,-72.87 -27.62,0 -35.69,29.85 -31.9,65.85 0.8,7.67 0.87,8.24 1.36,12.98 4.43,42.14 23.35,65.84 66.26,76.38 13.06,3.51 45.57,14.49 45.57,14.49 z m -15.21,334.52 c -74.1,0 -138.46,-35.48 -149.38,-139.38 l -0.81,-8.03 h 86.27 l 2.14,20.62 c 4.01,38.19 23.64,63.79 56.11,63.79 35.57,0 47.04,-22.66 43.12,-59.94 -0.24,-2.26 -0.87,-8.23 -1.17,-11.06 -3.44,-32.74 -15.73,-47.27 -48.48,-57.27 l -58.26,-17.86 c -69.97,-21.79 -103.24,-47.17 -112.13,-131.8 -6.34,-60.32 10.81,-127.6 79.2,-127.6 40.8,0 193.67,5.72 193.67,5.72 l 34.12,324.56 c 8.54,81.27 -7.56,138.25 -124.4,138.25 z m -564.39,-97.67 -38.41,-365.71 h -91.99 l 31.69,301.75 c 3.15,30.03 8.37,79.78 -42.48,79.78 -50.85,0 -57.17,-60.27 -59.22,-79.85 l -31.69,-301.68 h -91.99 l 48.05,457.38 c 0,0 146.18,5.75 190.86,5.75 55.51,0 90.97,-42.36 85.18,-97.42 z m 28.17,-365.71 h 91.98 l 48.05,457.09 h -91.99 z m 63.05,599.94 h 91.99 l -7.8,-74.28 h -91.99 z m -538.1,-267.3 -21.77,-207.05 c -3.02,-28.72 -7.14,-67.89 -57.99,-67.89 -50.85,0 -46.73,39.17 -43.71,67.89 l 21.76,207.05 c 3.02,28.72 7.13,67.89 57.99,67.89 50.85,0 46.73,-39.17 43.72,-67.89 z m -37.12,130.74 c -122.84,0 -150.82,-75.93 -156.46,-129.57 l -22.02,-209.54 c -5.64,-53.62 6.45,-129.42 129.29,-129.42 122.85,0 150.75,75.8 156.4,129.42 l 22.01,209.54 c 5.65,53.64 -6.37,129.57 -129.22,129.57 z m 863.08,-6.29 -12.41,-62.85 h -39.09 l -28.61,-268.94 c -2.76,-26.29 -6.62,-61.03 31.66,-66.77 v -63.63 c -17.14,0.31 -31.87,2.16 -44.85,5.26 -75.87,18.12 -83.53,78.97 -78.79,124.11 l 43.11,409.43 93.05,9.39 -8.97,-86 z m -1168.8,-38.1 c -4.817,-45.87 -14.462,-85.31 -67.602,-85.31 h -58.496 l 17.359,165.13 h 64.906 c 41.231,0 49.233,-28.44 43.833,-79.82 z m -18.458,-246.29 c -7.324,-69.68 -16.57,-99 -70.308,-99 h -18.071 c -39.984,0 -43.957,25.28 -42.117,42.77 l 7.977,75.76 8.273,78.59 h 68.184 c 50.211,0 51.164,-49.6 46.062,-98.12 z m 111.848,264.65 c 10.3,97.97 -32.38,134.02 -128.078,134.02 H 802.563 l -23.817,-226.28 -23.207,-220.96 c -5.637,-53.64 6.422,-129.85 129.266,-129.85 h 26.082 c 117.133,0 160.263,76.94 170.323,172.76 7.6,72.23 -9.41,123.42 -72.19,134.86 l 0.14,1.44 c 65.68,21.45 79.87,73.94 86.18,134.01"
         inkscape:connector-curvature="0" /><path
         id="path24"
         style="fill:#e51636;fill-opacity:1;fill-rule:nonzero;stroke:none"
         d="m 503.746,8406.61 c 15.809,0 34.281,0 34.281,0 l -3.605,-34.28 110.051,68.56 -95.637,68.57 -3.602,-34.28 c 0,0 -23.406,0.19 -33.691,0.19 -95.313,0 -142.383,-31.48 -124.313,-111.04 9.309,-41.01 19.223,-64.65 37.317,-129.13 23.941,-85.32 -48.547,-171.41 -162.527,-171.41 -141.161,0 -197.7739,145.11 -77.977,424.89 24.551,57.34 56.523,120.35 96.691,188.92 -8.027,2.13 -16.562,3.27 -25.484,3.27 -38.07,0 -73.488,-20.69 -94.508,-51.44 -2.394,-3.94 -4.754,-7.87 -7.078,-11.78 C 64.0039,8467 24.5938,8345.59 9.37891,8269.48 -27.7266,8083.9 43.9805,7927.46 247.605,7926.66 c 177.477,-0.71 360.559,172.3 276.008,342.82 -40.734,82.15 -68.386,137.13 -19.867,137.13 z M 348.598,8235.2 c -3.989,-37.86 -37.922,-68.57 -75.785,-68.57 -37.868,0 -65.333,30.71 -61.344,68.57 3.992,37.87 37.922,68.56 75.785,68.56 37.871,0 65.336,-30.69 61.344,-68.56 z m -187.856,394.23 c -2.394,-3.94 -4.754,-7.87 -7.078,-11.78 2.129,4.07 4.492,8 7.078,11.78 z m 2539.428,-403.37 -46.07,20.27 c -32.29,13.66 -40.24,33.7 -37.76,57.38 0.29,2.72 0.51,4.81 0.76,7.23 3.64,34.6 27.41,52.82 53.08,52.82 33,0 41.87,-24.59 36.71,-73.77 l -0.78,-7.37 h 82.28 l 1.66,15.79 c 8.55,81.28 -26.38,128.2 -110.72,128.2 -95.81,0 -139.9,-59.74 -147.74,-134.31 -6.7,-63.68 18.05,-97.33 66.96,-119.95 l 62.06,-29.14 c 18.15,-8.78 33.03,-22.82 29.8,-53.54 -0.2,-1.88 -1.14,-10.84 -1.32,-12.56 -3.97,-37.74 -25.77,-56.18 -55.45,-56.18 -33.22,0 -48.16,27.21 -43.82,68.46 l 2.65,25.25 h -82.28 l -1.39,-13.28 c -9.08,-86.3 13.95,-143.28 118.53,-143.28 78.28,0 139.58,44.07 149.54,138.75 7.13,67.87 -20.55,104.93 -76.7,129.23 z m 819.71,194.83 v 0 l -13.09,-62.85 h -39.11 l -28.32,-269.22 c -2.76,-26.29 -6.33,-61.32 31.95,-67.06 v -63.63 c -17.14,0.31 -32.16,2.16 -45.13,5.26 -75.87,18.12 -83.68,78.97 -78.93,124.11 l 28.43,270.54 h -98.83 l -41.44,-394.24 h -92 l 41.45,394.24 h -28.58 l 6.61,62.85 h 28.57 l 4.4,41.85 c 4.74,45.17 25.44,106.17 105.05,124.28 15.21,3.39 31.95,5.29 51.34,5.29 8.29,0 16.03,-0.35 23.39,-1.01 l -0.01,-0.13 -13.34,-63.47 c -4.77,1.14 -10.27,1.76 -16.66,1.76 -45.07,0 -53.43,-30.78 -56.84,-57.77 l -5.34,-50.8 h 98.84 l 7.99,76.04 93.02,9.67 -9.01,-85.71 z m -492.4,-125.02 -21.77,-207.05 c -3.01,-28.72 -7.13,-67.89 -57.99,-67.89 -50.85,0 -46.73,39.17 -43.71,67.89 l 21.76,207.05 c 3.02,28.72 7.14,67.89 57.99,67.89 50.85,0 46.73,-39.17 43.72,-67.89 z m -37.11,130.74 c -122.85,0 -150.83,-75.93 -156.47,-129.57 l -22.02,-209.54 c -5.64,-53.62 6.45,-129.42 129.3,-129.42 122.84,0 150.75,75.8 156.39,129.42 l 22.02,209.54 c 5.64,53.64 -6.38,129.57 -129.22,129.57"
         inkscape:connector-curvature="0" /></g></g></svg>