<?xml version="1.0" encoding="UTF-8" standalone="no"?>
<!DOCTYPE svg PUBLIC "-//W3C//DTD SVG 1.1//EN" "http://www.w3.org/Graphics/SVG/1.1/DTD/svg11.dtd">
<svg version="1.1" xmlns="http://www.w3.org/2000/svg" xmlns:xlink="http://www.w3.org/1999/xlink" preserveAspectRatio="xMidYMid meet" viewBox="0 0 640 640" width="32" height="32"><defs><path d="M640 320C640 496.61 496.61 640 320 640C143.39 640 0 496.61 0 320C0 143.39 143.39 0 320 0C496.61 0 640 143.39 640 320Z" id="f11fCWpKzn"></path><path d="M320 140C260.02 140 208.86 173.52 184.16 222.92C120.65 231.74 73.01 282.9 73.01 346.41C73.01 413.45 129.47 469.9 196.51 469.9C223.32 469.9 437.85 469.9 464.66 469.9C522.88 469.9 566.99 424.04 566.99 367.58C566.99 312.89 522.88 267.02 471.72 263.49C457.61 192.93 395.86 140 320 140Z" id="bbdfBVLXI"></path></defs><g><g><g><use xlink:href="#f11fCWpKzn" opacity="1" fill="#000000" fill-opacity="0"></use></g><g><use xlink:href="#bbdfBVLXI" opacity="1" fill="#ffffff" fill-opacity="1"></use><g><use xlink:href="#bbdfBVLXI" opacity="1" fill-opacity="0" stroke="#000000" stroke-width="1" stroke-opacity="0"></use></g></g></g></g></svg>