<?xml version="1.0" standalone="no"?>
<!DOCTYPE svg PUBLIC "-//W3C//DTD SVG 20010904//EN"
 "http://www.w3.org/TR/2001/REC-SVG-20010904/DTD/svg10.dtd">
<svg version="1.0" xmlns="http://www.w3.org/2000/svg"
 width="438.000000pt" height="515.000000pt" viewBox="0 0 438.000000 515.000000"
 preserveAspectRatio="xMidYMid meet">
<metadata>
Created by potrace 1.16, written by Peter Selinger 2001-2019
</metadata>
<g transform="translate(0.000000,515.000000) scale(0.100000,-0.100000)"
fill="#e22936" stroke="none">
<path d="M1610 5085 c-132 -23 -254 -80 -361 -169 -107 -88 -147 -146 -344
-496 -436 -778 -746 -1591 -851 -2235 -32 -195 -44 -557 -25 -726 75 -648 392
-1103 916 -1312 212 -85 458 -127 737 -127 342 0 610 63 933 220 649 315 1074
905 1075 1494 0 119 -25 280 -62 396 -16 52 -79 196 -140 320 -188 387 -240
522 -242 637 -2 129 34 152 248 152 l138 1 -6 -42 c-3 -24 -8 -76 -12 -117
l-7 -75 44 26 c118 69 704 440 706 446 3 8 -630 462 -645 462 -5 0 -12 -35
-16 -77 -4 -43 -9 -94 -12 -114 l-6 -36 -196 0 c-224 0 -359 -14 -479 -49
-245 -71 -373 -201 -404 -408 -23 -152 8 -300 171 -826 116 -375 125 -412 124
-555 0 -153 -14 -217 -79 -352 -176 -364 -596 -588 -1070 -570 -593 22 -915
415 -915 1115 1 718 353 1722 1001 2849 48 84 84 155 79 158 -13 8 -142 25
-185 24 -22 -1 -74 -7 -115 -14z"/>
<path d="M1800 2537 c-143 -49 -245 -139 -313 -276 l-42 -84 0 -126 c0 -116 2
-131 27 -183 50 -107 152 -194 263 -223 312 -81 635 170 635 494 0 79 -16 154
-43 207 -24 47 -103 130 -150 157 -104 61 -258 75 -377 34z"/>
</g>
</svg>
