<svg xmlns="http://www.w3.org/2000/svg" width="3527" height="1110" viewBox="0 0 3527 1110" version="1.1">
  <path
    d="M 260.701 185.561 C 237.831 191.836, 214.669 207.051, 200.120 225.356 C 185.778 243.402, 146.175 315.444, 119.232 372.500 C 105.968 400.589, 98.856 417.370, 83.845 456 C 73.173 483.463, 60.910 522.286, 51.602 558.076 C 41.096 598.474, 35.841 638.270, 35.832 677.500 C 35.821 729.997, 45.781 775.598, 65.210 812 C 87.157 853.120, 117.470 882.417, 158.368 902.038 C 179.349 912.103, 199.929 918.518, 225.469 922.953 C 243.796 926.135, 249.691 926.502, 282 926.470 C 309.326 926.442, 313.853 926.199, 325.500 924.136 C 373.478 915.634, 417.661 897.939, 456 871.871 C 521.939 827.038, 563.733 765.342, 573.107 699 C 574.861 686.590, 574.593 660.490, 572.589 648.506 C 570.368 635.223, 566.045 618.436, 561.771 606.500 C 561.180 604.850, 553.179 587.975, 543.992 569 C 516.843 512.931, 510.234 495.605, 509.277 478 C 508.670 466.850, 509.953 462.642, 515.144 458.743 C 520.107 455.014, 527.038 454, 547.549 454 C 563.537 454, 566 454.207, 566 455.548 C 566 456.399, 565.296 463.167, 564.436 470.588 C 563.575 478.009, 563.013 484.972, 563.186 486.060 C 563.500 488.037, 573.316 482.226, 630 446.507 C 636.325 442.521, 648.350 435.039, 656.723 429.880 C 665.096 424.721, 671.958 420.003, 671.973 419.395 C 671.988 418.787, 669.187 416.315, 665.750 413.901 C 651.837 404.131, 643.777 398.370, 600.129 366.991 C 587.825 358.145, 577.537 351.130, 577.265 351.401 C 576.568 352.098, 573.166 383.339, 573.688 384.250 C 573.925 384.663, 561.601 385, 546.303 385 C 516.009 385, 500.893 386.273, 481.806 390.432 C 467.679 393.510, 460.647 395.938, 451.373 400.940 C 432.227 411.268, 422.587 422.719, 416.387 442.500 C 414.846 447.417, 414.515 451.568, 414.550 465.500 C 414.590 481.005, 414.882 483.775, 417.873 497 C 421.878 514.714, 422.636 517.479, 430.219 542 C 433.535 552.725, 436.594 562.850, 437.018 564.500 C 437.441 566.150, 440.325 575.721, 443.427 585.770 C 451.330 611.377, 455.891 628.328, 457.076 636.500 C 458.534 646.549, 458.287 666.154, 456.583 675.672 C 448.616 720.193, 415.962 757.232, 367 777.287 C 345.727 786, 324.523 789.738, 296 789.801 C 261.491 789.877, 241.654 784.991, 217.189 770.392 C 199.120 759.609, 180.664 738.092, 171.456 717.076 C 163.017 697.813, 157.051 674.651, 155.466 655 C 153.745 633.655, 154.704 597.460, 157.535 576.940 C 171.731 474.043, 220.929 348.670, 304.393 202.697 C 309.677 193.456, 314 185.747, 314 185.566 C 314 184.106, 302.278 183.012, 287.307 183.073 C 271.720 183.137, 268.403 183.448, 260.701 185.561 M 3206.412 361.518 C 3194.746 363.027, 3180.321 367.569, 3171 372.668 C 3149.183 384.604, 3133.401 406.958, 3127.630 434.098 C 3125.030 446.326, 3124.885 447.775, 3124.300 467.250 L 3123.738 486 3098.355 486 L 3072.972 486 3073.236 517.750 L 3073.500 549.500 3098.750 549.767 L 3124 550.034 3124 673.017 L 3124 796 3161.500 796 L 3199 796 3199 672.750 L 3199 549.500 3269 549.763 L 3339 550.027 3339 633.941 C 3339 687.776, 3339.382 720.659, 3340.066 725.678 C 3344.466 757.973, 3358.098 778.912, 3382.638 791.069 C 3394.486 796.937, 3409.478 799.844, 3432 800.640 C 3447.714 801.195, 3475.890 800.034, 3487.750 798.343 L 3492 797.737 3492 762.868 C 3492 743.691, 3491.662 728.014, 3491.250 728.032 C 3490.838 728.049, 3485.775 728.710, 3480 729.500 C 3449.796 733.633, 3428.133 728.616, 3420.588 715.741 C 3415.272 706.669, 3415.098 703.787, 3415.035 623.500 L 3414.976 549.500 3453.238 549.500 L 3491.500 549.500 3491.764 517.750 L 3492.028 486 3453.524 486 L 3415.020 486 3414.760 440.250 L 3414.500 394.500 3376.750 394.238 L 3339 393.976 3339 439.988 L 3339 486 3268.848 486 L 3198.696 486 3199.280 473.750 C 3200.296 452.422, 3205.791 440.309, 3217.585 433.397 C 3226.018 428.455, 3229.869 428.025, 3265.763 428.012 L 3299.027 428 3298.763 394.250 L 3298.500 360.500 3257.500 360.357 C 3228.836 360.257, 3213.465 360.606, 3206.412 361.518 M 2583.402 480.063 C 2557.964 482.023, 2535.791 488.133, 2519.280 497.732 C 2498.325 509.914, 2486.513 523.708, 2479.659 544 C 2475.980 554.893, 2475 561.738, 2475 576.555 C 2475 599.507, 2480.811 616.072, 2493.776 630.075 C 2512.197 649.971, 2532.665 659.004, 2578.500 667.462 C 2609.454 673.174, 2623.464 676.773, 2635.785 682.176 C 2647.803 687.447, 2653.140 692.278, 2655.398 699.932 C 2657.409 706.749, 2657.420 711.221, 2655.444 717.878 C 2652.491 727.821, 2643.977 734.306, 2629.500 737.639 C 2618.186 740.245, 2592.671 740.241, 2581.500 737.632 C 2562.076 733.095, 2550.559 722.826, 2546.866 706.750 L 2545.545 701 2507.123 701 L 2468.700 701 2469.307 711.750 C 2470.285 729.083, 2475.342 742.695, 2486.116 756.994 C 2503.034 779.446, 2529.942 793.062, 2568.117 798.488 C 2575.061 799.475, 2586.947 799.968, 2604 799.977 C 2643.179 799.998, 2662.006 796.554, 2685.500 785.066 C 2710.411 772.886, 2726.018 754.283, 2732.152 729.460 C 2735.150 717.327, 2735.378 695.249, 2732.626 683.500 C 2729.453 669.948, 2725.553 662.778, 2715.579 652.156 C 2705.516 641.440, 2689.402 632.059, 2669.855 625.539 C 2664 623.586, 2649.375 619.952, 2637.355 617.463 C 2584.439 606.506, 2573.813 603.249, 2561.359 594.166 C 2549.287 585.361, 2548.105 563.943, 2559.095 553.159 C 2571.505 540.982, 2602.405 536.423, 2623.735 543.622 C 2638.621 548.646, 2649.072 560.819, 2650.243 574.500 L 2650.500 577.500 2689.250 577.762 L 2728 578.023 2728 575.736 C 2728 574.477, 2727.528 569.634, 2726.952 564.974 C 2723.105 533.860, 2705.162 508.715, 2676.479 494.241 C 2668.869 490.400, 2650.079 484.532, 2639 482.536 C 2630.109 480.934, 2605.731 478.922, 2598 479.151 C 2595.525 479.225, 2588.956 479.635, 2583.402 480.063 M 2894.255 480.043 C 2866.756 482.298, 2839.081 491.808, 2816.500 506.763 C 2806.085 513.660, 2805.635 514.038, 2792.908 526.566 C 2773.444 545.726, 2758.937 570.725, 2752.049 596.980 C 2748.121 611.952, 2747.488 618.444, 2747.562 643 C 2747.632 666.336, 2749.024 676.339, 2754.464 692.598 C 2763.196 718.695, 2774.828 737.258, 2794.405 756.338 C 2815.546 776.941, 2843.468 791.579, 2874.113 798.125 C 2883.101 800.045, 2887.666 800.352, 2908 800.404 C 2928.549 800.457, 2932.906 800.181, 2942.695 798.212 C 2974.782 791.758, 3001.458 777.548, 3024.656 754.551 C 3041.643 737.710, 3051.039 723.589, 3060.428 700.788 C 3064.519 690.852, 3069.566 672.135, 3070.347 664 C 3072.454 642.058, 3071.849 622.687, 3068.566 606.914 C 3066.237 595.724, 3060.598 579.029, 3055.902 569.416 C 3043.484 543.999, 3021.035 518.955, 2997.500 504.266 C 2976.288 491.027, 2948.897 482.218, 2922 479.986 C 2909.348 478.936, 2907.714 478.939, 2894.255 480.043 M 304.829 555.499 C 271.842 561.764, 244.093 594.655, 243.662 628 C 243.514 639.519, 244.949 645.850, 250.234 657 C 253.456 663.796, 255.809 667.028, 261.969 673.121 C 274.129 685.148, 287.167 690.297, 305.500 690.312 C 334.525 690.336, 360.006 673.970, 373.797 646.448 C 379.018 636.026, 380.929 627.779, 381.081 614.997 C 381.404 587.955, 363.143 563.371, 337.500 556.325 C 329.820 554.215, 313.730 553.808, 304.829 555.499 M 2897.500 555.023 C 2852.023 561.915, 2821.318 603.819, 2826.853 651.435 C 2828.306 663.935, 2830.647 671.486, 2836.795 683.500 C 2840.534 690.807, 2843.196 694.301, 2850.950 702.076 C 2864.452 715.614, 2876.958 722.073, 2895.438 725.054 C 2905.746 726.717, 2923.392 725.756, 2933 723.009 C 2981.012 709.277, 3005.276 653.283, 2984.429 604.325 C 2975.895 584.284, 2964.179 571.983, 2944.553 562.460 C 2939.574 560.044, 2932.575 557.394, 2929 556.571 C 2920.568 554.629, 2905.111 553.870, 2897.500 555.023"
    stroke="none" fill="#e40414" fill-rule="evenodd"/>
  <path
    d="M 1820.973 358.277 C 1803.858 364.112, 1792.132 379.658, 1791.181 397.776 C 1790.175 416.931, 1799.423 432.732, 1816.500 441.039 C 1841.911 453.399, 1873.981 439.874, 1881.529 413.613 C 1882.765 409.313, 1883.116 405.134, 1882.829 398.113 C 1882.496 389.936, 1881.977 387.529, 1879.358 382 C 1873.741 370.141, 1864.125 361.697, 1851.909 357.895 C 1843.179 355.178, 1829.571 355.346, 1820.973 358.277 M 1953 439.988 L 1953 486 1926.486 486 L 1899.972 486 1900.236 517.750 L 1900.500 549.500 1926.500 549.500 L 1952.500 549.500 1953.060 638 C 1953.567 718.021, 1953.790 727.219, 1955.394 734 C 1964.358 771.907, 1983.252 790.944, 2019 798.089 C 2035.921 801.470, 2078.889 801.602, 2101.750 798.343 L 2106 797.737 2106 762.868 C 2106 743.691, 2105.662 728.014, 2105.250 728.032 C 2104.838 728.049, 2099.775 728.710, 2094 729.500 C 2081.653 731.189, 2066.463 731.406, 2058.886 730.001 C 2050.202 728.391, 2039.910 722.809, 2036.380 717.795 C 2029.095 707.448, 2029 706.223, 2029 622.828 L 2029 550.024 2067.250 549.762 L 2105.500 549.500 2105.764 517.750 L 2106.028 486 2067.524 486 L 2029.020 486 2028.760 440.250 L 2028.500 394.500 1990.750 394.238 L 1953 393.976 1953 439.988 M 778 597 L 778 796 876.788 796 C 956.656 796, 977.771 795.725, 987.038 794.564 C 1016.242 790.905, 1041.670 781.688, 1061.401 767.608 C 1107.743 734.539, 1116.782 664.355, 1080.054 622.781 C 1070.943 612.469, 1051.680 600.499, 1035.628 595.175 L 1029.756 593.228 1038.102 588.886 C 1042.693 586.498, 1049.730 581.904, 1053.741 578.677 C 1085.109 553.443, 1094.355 507.025, 1076.274 465.555 C 1071.166 453.839, 1066.049 446.702, 1055.087 436 C 1037.351 418.685, 1014.390 407.649, 983.500 401.593 C 966.819 398.323, 956.912 398.016, 867.750 398.008 L 778 398 778 597 M 857 520.002 L 857 570.140 903.750 569.731 C 953.366 569.297, 955.794 569.086, 969.207 564.037 C 977.797 560.803, 988.999 553.026, 992.830 547.635 C 994.662 545.058, 997.335 540.148, 998.770 536.725 C 1001.028 531.336, 1001.386 529.022, 1001.435 519.500 C 1001.544 498.003, 994.479 486.559, 975.500 477.492 C 962.019 471.051, 958.842 470.724, 905.250 470.271 L 857 469.863 857 520.002 M 1262.402 480.031 C 1226.673 483.445, 1193.456 497.382, 1168.828 519.294 C 1135.857 548.629, 1117.072 588.928, 1115.318 634.089 C 1113.909 670.375, 1122.926 702.924, 1142.581 732.500 C 1164.214 765.054, 1200.403 788.945, 1241.447 797.772 C 1252.460 800.141, 1255.528 800.366, 1277 800.387 C 1303.440 800.413, 1311.646 799.313, 1329.867 793.299 C 1354.798 785.070, 1376.314 771.910, 1394 754.073 C 1416.431 731.449, 1430.861 704.385, 1437.064 673.299 C 1439.761 659.782, 1440.721 635.227, 1439.091 621.410 C 1437.656 609.242, 1433.769 592.089, 1430.447 583.263 C 1427.622 575.757, 1415.414 551.859, 1413.054 549.215 C 1412.199 548.258, 1408.905 544.045, 1405.734 539.855 C 1399.384 531.463, 1387.784 519.985, 1378.500 512.907 C 1352.221 492.872, 1318.663 481.129, 1283.500 479.662 C 1276.900 479.387, 1267.406 479.553, 1262.402 480.031 M 1632.346 480.094 C 1602.785 483.071, 1577.514 495.160, 1556.334 516.455 C 1550.743 522.076, 1545.232 528.211, 1544.088 530.088 L 1542.007 533.500 1542.004 509.750 L 1542 486 1504 486 L 1466 486 1466 641 L 1466 796 1503.957 796 L 1541.915 796 1542.282 712.250 C 1542.598 640.086, 1542.866 627.716, 1544.216 622.830 C 1551.461 596.609, 1561.735 579.887, 1577.388 568.839 C 1592.392 558.249, 1602.637 554.719, 1618.500 554.674 C 1646.611 554.596, 1668.105 569.920, 1675.397 595.239 C 1678.490 605.980, 1678.948 620.462, 1678.974 708.262 L 1679 796.024 1716.750 795.762 L 1754.500 795.500 1754.500 687.500 C 1754.500 572.253, 1754.573 574.171, 1749.482 556 C 1741.221 526.515, 1723.676 503.961, 1699.500 491.752 C 1680.635 482.225, 1655.140 477.799, 1632.346 480.094 M 2251.883 480.047 C 2228.010 482.173, 2206.389 489.398, 2186.514 501.889 C 2150.526 524.508, 2128.170 558.293, 2118.283 605 C 2115.900 616.260, 2115.630 619.683, 2115.569 639.500 C 2115.495 663.123, 2116.147 668.847, 2121.042 687.583 C 2126.446 708.267, 2133.649 723.745, 2145.963 741.133 C 2165.967 769.383, 2198.134 790.504, 2232.488 797.947 C 2252.233 802.225, 2285.998 801.724, 2304.437 796.879 C 2314.063 794.349, 2328.497 787.782, 2336.623 782.235 C 2343.062 777.839, 2353.808 767.779, 2358.771 761.500 L 2361.933 757.500 2361.966 776.750 L 2362 796 2400 796 L 2438 796 2438 641 L 2438 486 2400 486 L 2362 486 2362 505.059 L 2362 524.119 2356.042 516.712 C 2349.887 509.061, 2337.911 498.905, 2329.135 493.892 C 2316.448 486.646, 2298.946 481.712, 2279.981 480.033 C 2267.353 478.916, 2264.563 478.917, 2251.883 480.047 M 1799.247 640.750 L 1799.500 795.500 1837.250 795.762 L 1875 796.024 1875 641.012 L 1875 486 1836.997 486 L 1798.994 486 1799.247 640.750 M 1266.500 555.044 C 1223.809 561.664, 1195.071 596.043, 1195.013 640.566 C 1194.976 668.920, 1206.459 693.417, 1227.253 709.343 C 1241.542 720.288, 1257.019 725.529, 1276 725.850 C 1301.440 726.280, 1321.422 718.096, 1337.693 700.584 C 1348.957 688.461, 1354.676 677.165, 1358.217 660.049 C 1362.105 641.255, 1359.145 615.121, 1351.388 599.760 C 1340.681 578.560, 1321.082 562.789, 1298.138 556.911 C 1289.247 554.633, 1274.691 553.774, 1266.500 555.044 M 2267.472 555.042 C 2249.086 557.446, 2233.142 564.982, 2220.133 577.415 C 2208.823 588.224, 2200.916 602.202, 2196.781 618.699 C 2195.006 625.778, 2194.586 630.240, 2194.636 641.500 C 2194.712 658.594, 2196.620 666.726, 2204.128 681.954 C 2208.580 690.985, 2210.523 693.655, 2218.391 701.556 C 2236.662 719.903, 2255.790 726.944, 2284 725.708 C 2294.202 725.261, 2298.247 724.599, 2306 722.104 C 2318.238 718.167, 2328.696 711.970, 2337.626 703.366 C 2348.228 693.150, 2354.953 682.011, 2359.083 667.829 C 2361.814 658.450, 2362.848 634.559, 2361.014 623.179 C 2353.833 578.601, 2313.269 549.053, 2267.472 555.042 M 857 673.017 L 857 724.033 908.750 723.984 C 959.805 723.936, 967.825 723.530, 980.415 720.353 C 994.241 716.863, 1007.773 707.346, 1013.271 697.243 C 1020.694 683.605, 1020.785 663.377, 1013.490 648.980 C 1010.319 642.723, 1001.486 634.847, 993.302 630.980 C 977.063 623.307, 964.108 622.024, 902.750 622.010 L 857 622 857 673.017"
    stroke="none" fill="#042494" fill-rule="evenodd"/>
</svg>
