<svg width="3532" height="1234" viewBox="0 0 3532 1234" fill="none" xmlns="http://www.w3.org/2000/svg">
  <path fill-rule="evenodd" clip-rule="evenodd" d="M2228.01 489.504C2105.08 489.505 2015.92 593.999 2015.92 730.405C2015.92 797.993 2036.74 855.055 2073.47 895.287C2110.25 935.566 2162.56 958.515 2224.54 958.515C2290.52 958.515 2351.18 942.928 2390.25 889.45L2390.65 888.912L2391.44 887.815V813.715L2381 823.918C2342 861.972 2296.57 881.116 2252.34 881.117C2214.09 881.117 2183.53 866.461 2162.41 840.378C2141.17 814.152 2129.03 772.007 2129.03 724.013V723.269H2416.64V695.726C2416.64 637.606 2397.95 584.1 2364.78 548.869C2331.58 513.607 2284.29 489.504 2228.01 489.504ZM2226.27 548.482C2199.25 548.483 2176.93 560.44 2160.41 582.919C2144.61 604.426 2134.05 631.97 2130.45 671.872H2312.12C2311.27 633.045 2302.49 605.448 2288.05 583.648C2272.97 560.887 2251.77 548.482 2226.27 548.482Z" fill="white"/>
  <path fill-rule="evenodd" clip-rule="evenodd" d="M1804.79 565.008V732.135C1804.79 803.303 1804.13 874.449 1800.08 945.515H1920.88C1916.72 874.47 1915.3 803.295 1915.3 732.135V565.008L2012.61 565.87V495.089L1915.3 495.951V427.864C1915.3 400.43 1921.03 380.479 1930.68 367.537C1940.15 354.855 1953.87 348.228 1971.7 348.228C1996.14 348.228 2016.97 360.494 2036.95 373.25V303.559L2035.61 302.33C2009.29 278.16 1971.99 273.76 1937.81 273.76C1897.43 273.76 1863.95 289.583 1840.68 317.295C1817.48 344.905 1804.79 383.842 1804.79 429.594V495.943L1721.38 495.075V565.884L1804.79 565.008Z" fill="white"/>
  <path fill-rule="evenodd" clip-rule="evenodd" d="M1388.12 288.936C1209.49 288.936 1079.27 432.171 1079.27 624.701C1079.27 817.23 1209.49 960.466 1388.12 960.466C1567.58 960.464 1697.81 817.241 1697.81 624.701C1697.81 432.16 1567.58 288.937 1388.12 288.936ZM1524.49 421.498C1557.81 469.986 1577.25 539.88 1577.25 624.701C1577.25 709.522 1557.81 779.416 1524.49 827.903C1491.29 876.224 1444.28 903.405 1388.12 903.406C1332.4 903.406 1285.6 876.24 1252.49 827.911C1219.27 779.42 1199.83 709.522 1199.83 624.701C1199.83 539.879 1219.26 469.974 1252.48 421.483C1285.59 373.154 1332.4 345.988 1388.12 345.988C1444.28 345.989 1491.29 373.177 1524.49 421.498Z" fill="white"/>
  <path fill-rule="evenodd" clip-rule="evenodd" d="M2488.46 732.135C2488.46 803.322 2486.93 874.441 2482.88 945.515H2604.56C2600.4 874.444 2599.84 803.31 2599.84 732.135V291.633H2482.89C2491.1 438.349 2488.46 585.271 2488.46 732.135Z" fill="white"/>
  <path fill-rule="evenodd" clip-rule="evenodd" d="M2700.24 530.125C2699.87 518.545 2700.14 506.797 2697.33 495.489H2815.65C2815.65 652.763 2810.19 788.515 2821.33 945.515H2698.7C2707.01 799.643 2704.85 676.087 2700.24 530.125Z" fill="white"/>
  <path fill-rule="evenodd" clip-rule="evenodd" d="M2758.23 280.812C2722.04 280.813 2692.99 307.64 2692.99 345.092C2692.99 380.809 2722.04 408.496 2758.23 408.496C2794.54 408.495 2822.6 380.689 2822.61 345.092C2822.61 307.76 2794.55 280.814 2758.23 280.812Z" fill="white"/>
  <path fill-rule="evenodd" clip-rule="evenodd" d="M3199.37 532.802C3171.09 505.356 3130.36 489.613 3080.4 489.612C3012.08 489.613 2952.84 512.151 2910.6 562.366L2910.11 562.94L2909.15 564.096V643.489L2919.75 632.402C2955.38 595.168 3005.12 570.155 3050.85 570.154C3077.22 570.154 3097.52 577.041 3111.16 589.279C3124.7 601.426 3132.46 619.545 3132.46 643.717V668.407L3018.88 698.413C2973.98 710.272 2939.62 727.559 2916.43 750.355C2893.08 773.31 2881.34 801.569 2881.34 834.43C2881.34 910.388 2940.33 958.514 3012.62 958.515C3062.17 958.514 3107.1 933.454 3133.32 891.312V945.515H3247.67C3243.69 875.604 3242.96 805.614 3242.96 735.603V643.717C3242.96 598.921 3227.66 560.259 3199.37 532.802ZM2984.9 822.291C2984.9 841.628 2991.54 857.556 3002.54 868.631C3013.55 879.707 3029.3 886.321 3048.25 886.321C3094.18 886.32 3133.32 842.59 3133.32 778.954V721.501C3077.08 736.977 2984.9 746.581 2984.9 822.291Z" fill="white"/>
  <path d="M285.152 450.226C227.645 131.782 892.618 381.62 892.618 381.62L373.16 905.25C366.926 911.534 356.199 908.106 354.77 899.37C326.129 724.288 306.478 568.319 285.152 450.226Z" fill="url(#paint0_linear_11704_11441)"/>
  <path d="M940.194 290.236L361.018 874.952L387.381 901.066L966.56 316.351L940.194 290.236Z" fill="white"/>
  <path opacity="0.6" d="M595.738 831.106C588.057 917.588 500.215 989.868 355.954 906.64C339.613 813.158 300.277 551.579 288.402 476.122C291.255 488.09 355.954 596.888 426.505 638.568C497.055 680.248 603.418 744.624 595.738 831.106Z" fill="url(#paint1_linear_11704_11441)"/>
  <circle cx="362.043" cy="900.646" r="45.7408" transform="rotate(44.737 362.043 900.646)" fill="white"/>
  <defs>
    <linearGradient id="paint0_linear_11704_11441" x1="418.415" y1="938.709" x2="615.437" y2="294.28" gradientUnits="userSpaceOnUse">
      <stop stop-color="#5C1932"/>
      <stop offset="0.298077" stop-color="#FF6E41"/>
      <stop offset="0.625" stop-color="#FCD5DB"/>
      <stop offset="0.822115" stop-color="#F3F3F1"/>
    </linearGradient>
    <linearGradient id="paint1_linear_11704_11441" x1="362.925" y1="917.552" x2="479.976" y2="534.693" gradientUnits="userSpaceOnUse">
      <stop stop-color="#5C1932"/>
      <stop offset="0.298077" stop-color="#FF6E41"/>
      <stop offset="0.625" stop-color="#FCD5DB"/>
      <stop offset="0.822115" stop-color="#F3F3F1"/>
    </linearGradient>
  </defs>
</svg>
