<?xml version="1.0" encoding="UTF-8" standalone="no"?>
<!DOCTYPE svg PUBLIC "-//W3C//DTD SVG 1.1//EN" "http://www.w3.org/Graphics/SVG/1.1/DTD/svg11.dtd">
<svg version="1.1" xmlns="http://www.w3.org/2000/svg" xmlns:xlink="http://www.w3.org/1999/xlink" preserveAspectRatio="xMidYMid meet" viewBox="0 0 640 640" width="640" height="640"><defs><path d="M428.31 402.52C422.28 396.48 418.92 393.12 418.25 392.45C454.11 350.92 475.7 296.95 475.7 237.85C475.7 106.48 369.22 0 237.85 0C106.49 0 0 106.48 0 237.85C0 369.22 106.48 475.7 237.85 475.7C296.95 475.7 350.92 454.11 392.45 418.43C393.12 419.1 396.48 422.46 402.52 428.5L402.52 457.4L585.48 640L640 585.48L457.4 402.52L428.31 402.52ZM73.19 237.85C73.19 146.92 146.92 73.19 237.85 73.19C328.78 73.19 402.52 146.92 402.52 237.85C402.52 328.78 328.78 402.52 237.85 402.52C146.92 402.52 73.19 328.78 73.19 237.85Z" id="dvekdZciY"></path></defs><g><g><g><use xlink:href="#dvekdZciY" opacity="1" fill="#000000" fill-opacity="1"></use><g><use xlink:href="#dvekdZciY" opacity="1" fill-opacity="0" stroke="#000000" stroke-width="1" stroke-opacity="0"></use></g></g></g></g></svg>